<svg width="131" height="56" viewBox="0 0 131 56" fill="none" xmlns="http://www.w3.org/2000/svg">
<rect width="131" height="56" rx="10" fill="#BB9356"/>
<path d="M13.0047 15.96H15.3447V20.22H21.1347V15.96H23.5047V28.59H13.0047V15.96ZM15.3447 22.2V26.58H21.1347V22.2H15.3447ZM32.2647 14.25H34.6347V30.51H32.2647V14.25ZM27.8847 21.27H33.0147V23.34H27.8847V21.27ZM26.4447 14.73H28.8147V30.36H26.4447V14.73ZM16.4547 32.13H34.6347V41.34H32.1747V34.17H16.4547V32.13ZM40.6023 17.19H52.8723V19.2H40.6023V17.19ZM44.8323 24.93H47.2923V34.11H44.8323V24.93ZM51.8523 17.19H54.2823V18.63C54.2823 20.85 54.2823 24.39 53.5023 29.43L51.0423 29.19C51.8523 24.3 51.8523 20.82 51.8523 18.63V17.19ZM57.7023 14.22H60.1623V41.34H57.7023V14.22ZM59.5023 25.56H64.5123V27.66H59.5023V25.56ZM39.4023 35.43L39.1023 33.33C44.0223 33.33 50.5623 33.24 56.0523 32.55L56.1723 34.38C50.5623 35.28 44.2023 35.4 39.4023 35.43ZM73.63 16.56H75.67V21.42C75.67 27.42 72.43 33.27 68.14 35.55L66.61 33.57C70.54 31.59 73.63 26.37 73.63 21.42V16.56ZM74.08 16.56H76.09V21.42C76.09 26.19 79.12 31.14 82.96 33.06L81.43 35.04C77.23 32.79 74.08 27.24 74.08 21.42V16.56ZM85.33 14.22H87.85V41.34H85.33V14.22ZM87.25 25.2H92.29V27.3H87.25V25.2ZM108.968 21.69H115.808V23.73H108.968V21.69ZM114.398 14.25H116.888V34.11H114.398V14.25ZM99.5777 38.7H117.638V40.74H99.5777V38.7ZM99.5777 32.37H102.068V39.75H99.5777V32.37ZM101.498 17.61H103.538V19.8C103.538 24.72 100.478 28.98 95.9477 30.66L94.6577 28.68C98.7077 27.24 101.498 23.64 101.498 19.8V17.61ZM101.978 17.61H103.988V19.77C103.988 23.28 106.628 26.7 110.558 28.08L109.298 30.03C104.888 28.44 101.978 24.36 101.978 19.77V17.61ZM95.4377 16.44H109.928V18.45H95.4377V16.44Z" fill="white"/>
</svg>
