<svg width="131" height="56" viewBox="0 0 131 56" fill="none" xmlns="http://www.w3.org/2000/svg">
<rect width="131" height="56" rx="10" fill="#DF8A8A"/>
<path d="M17.4447 19.2H19.3347V20.07C19.3347 24.45 17.1447 28.38 13.2147 30.03L11.9847 28.17C15.4347 26.79 17.4447 23.52 17.4447 20.07V19.2ZM17.9247 19.2H19.7847V20.07C19.7847 23.31 21.8547 26.37 25.2747 27.69L24.1047 29.55C20.1147 27.99 17.9247 24.24 17.9247 20.07V19.2ZM12.5247 17.79H24.6147V19.8H12.5247V17.79ZM17.4447 14.52H19.7847V18.63H17.4447V14.52ZM32.2647 14.25H34.6347V30.87H32.2647V14.25ZM27.8847 21.45H33.0147V23.49H27.8847V21.45ZM26.5047 14.7H28.8447V30.69H26.5047V14.7ZM16.4547 32.31H34.6347V41.34H32.1747V34.32H16.4547V32.31ZM57.7323 14.22H60.2523V41.34H57.7323V14.22ZM59.6523 24.87H64.6923V27H59.6523V24.87ZM40.4523 16.5H42.9123V23.67H50.6523V16.5H53.1123V34.83H40.4523V16.5ZM42.9123 25.65V32.79H50.6523V25.65H42.9123ZM85.36 14.19H87.85V41.37H85.36V14.19ZM87.25 24.99H92.29V27.09H87.25V24.99ZM68.08 32.76H70.24C75.34 32.76 78.88 32.58 82.99 31.8L83.26 33.87C79.03 34.62 75.43 34.83 70.24 34.83H68.08V32.76ZM68.02 16.74H80.29V26.46H70.54V33.6H68.08V24.42H77.83V18.78H68.02V16.74ZM114.338 14.22H116.828V41.34H114.338V14.22ZM106.388 17.13H108.848C108.848 24.99 105.308 31.86 96.2477 36.3L94.9277 34.29C102.758 30.51 106.388 24.75 106.388 17.55V17.13ZM96.1577 17.13H107.468V19.17H96.1577V17.13Z" fill="white"/>
</svg>
