<svg width="88" height="56" viewBox="0 0 88 56" fill="none" xmlns="http://www.w3.org/2000/svg">
<g clip-path="url(#clip0_2038_9576)">
<rect width="88" height="56" rx="10" fill="#92DD8C"/>
<path d="M20.9923 23.37H39.5323V25.41H20.9923V23.37ZM20.9923 15.6H23.4823V24.33H20.9923V15.6ZM17.9023 29.28H42.4123V31.35H17.9023V29.28ZM24.2023 30.06H26.6923V41.34H24.2023V30.06ZM33.5923 30.06H36.0523V41.34H33.5923V30.06ZM65.18 14.19H67.67V41.37H65.18V14.19ZM47.03 16.5H49.49V23.67H57.32V16.5H59.81V34.83H47.03V16.5ZM49.49 25.65V32.79H57.32V25.65H49.49Z" fill="white"/>
</g>
<defs>
<clipPath id="clip0_2038_9576">
<rect width="88" height="56" rx="10" fill="white"/>
</clipPath>
</defs>
</svg>
